D:\school\WTK\thesis\model\3dpredictsim\Results\batch_windlass\Pog_s1_tmt_bCst_d00_k500_WL10_ig24_act_TTC_GRF.mot
nRows=10
nColumns=19

name D:\school\WTK\thesis\model\3dpredictsim\Results\batch_windlass\Pog_s1_tmt_bCst_d00_k500_WL10_ig24_act_TTC_GRF.mot
datacolumns 19
datarows 10
range 0.0000000000 0.1025585555
endheader
time 	ground_force_vx	ground_force_vy	ground_force_vz	ground_force_px	ground_force_py	ground_force_pz	1_ground_force_vx	1_ground_force_vy	1_ground_force_vz	1_ground_force_px	1_ground_force_py	1_ground_force_pz	ground_torque_x	ground_torque_y	ground_torque_z	1_ground_torque_x	1_ground_torque_y	1_ground_torque_z
        0.0000000000	      -41.1750168090	       33.7989565126	        6.7637476037	        0.1625282021	        0.0000000000	        0.0728267352	       78.1301791346	      357.6895007182	        0.1423311354	       -0.3653118085	        0.0000000000	       -0.0320126147	        0.0000000000	        0.0000000000	        0.0000000000	        0.0000000000	        0.0000000000	        0.0000000000	
        0.0113953951	     -133.2370935642	      131.1825857115	       28.0924292324	        0.1734204087	        0.0000000000	        0.0717931192	       50.4583258452	      256.4856048458	      -10.7154186764	       -0.3542495361	        0.0000000000	       -0.0267765603	        0.0000000000	        0.0000000000	        0.0000000000	        0.0000000000	        0.0000000000	        0.0000000000	
        0.0227907901	      -70.4065695265	      381.2514202115	        2.2569737842	        0.1844600513	        0.0000000000	        0.0693878185	       35.6925550459	      211.4030623301	      -18.2860344921	       -0.3494061551	        0.0000000000	       -0.0243522734	        0.0000000000	        0.0000000000	        0.0000000000	        0.0000000000	        0.0000000000	        0.0000000000	
        0.0341861852	     -126.2460580808	      725.3195780071	      -15.3630031390	        0.1962488011	        0.0000000000	        0.0663764938	       30.4442809536	      174.6673564315	      -25.7672717843	       -0.3493749325	        0.0000000000	       -0.0248337059	        0.0000000000	        0.0000000000	        0.0000000000	        0.0000000000	        0.0000000000	        0.0000000000	
        0.0455815802	     -147.6607069866	      908.8213314798	      -21.2088014214	        0.2009998323	        0.0000000000	        0.0646573883	       22.2604785132	      127.9904357725	      -24.3315824448	       -0.3492750778	        0.0000000000	       -0.0248460586	        0.0000000000	        0.0000000000	        0.0000000000	        0.0000000000	        0.0000000000	        0.0000000000	
        0.0569769753	     -148.9413688508	      918.7316862811	      -22.6763250774	        0.2039546034	        0.0000000000	        0.0634308532	        3.8786062242	       72.8041566611	      -17.9420059410	       -0.3502014308	        0.0000000000	       -0.0248162064	        0.0000000000	        0.0000000000	        0.0000000000	        0.0000000000	        0.0000000000	        0.0000000000	
        0.0683723703	     -133.0159290643	      871.7878462714	      -21.4012535361	        0.2064412428	        0.0000000000	        0.0626727370	       -4.9639787748	       10.3677999597	       -2.8565435310	       -0.3534811716	        0.0000000000	       -0.0241501913	        0.0000000000	        0.0000000000	        0.0000000000	        0.0000000000	        0.0000000000	        0.0000000000	
        0.0797677654	     -117.5511319165	      819.0811100378	      -21.6850261731	        0.2090201481	        0.0000000000	        0.0621042560	       -0.8632695739	        0.7388579868	        0.0232822265	        0.0000000000	        0.0000000000	        0.0000000000	        0.0000000000	        0.0000000000	        0.0000000000	        0.0000000000	        0.0000000000	        0.0000000000	
        0.0911631604	     -105.1642891338	      777.0005230211	      -20.5244035153	        0.2115326879	        0.0000000000	        0.0617170401	       -7.9032626887	        5.6963394790	        0.5343574442	        0.0000000000	        0.0000000000	        0.0000000000	        0.0000000000	        0.0000000000	        0.0000000000	        0.0000000000	        0.0000000000	        0.0000000000	
        0.1025585555	      -92.0102541569	      750.0433811686	      -20.5152724415	        0.2149695527	        0.0000000000	        0.0612981116	       -6.6228867073	        4.1648443773	        0.4769920783	        0.0000000000	        0.0000000000	        0.0000000000	        0.0000000000	        0.0000000000	        0.0000000000	        0.0000000000	        0.0000000000	        0.0000000000	
